<svg width="21" height="19" viewBox="0 0 21 19" fill="none" xmlns="http://www.w3.org/2000/svg">
<path d="M15.2496 0.275024C13.5096 0.275024 11.8396 1.08502 10.7496 2.36502C9.65963 1.08502 7.98963 0.275024 6.24963 0.275024C3.16963 0.275024 0.749634 2.69502 0.749634 5.77502C0.749634 9.55502 4.14963 12.635 9.29963 17.315L10.7496 18.625L12.1996 17.305C17.3496 12.635 20.7496 9.55502 20.7496 5.77502C20.7496 2.69502 18.3296 0.275024 15.2496 0.275024ZM10.8496 15.825L10.7496 15.925L10.6496 15.825C5.88963 11.515 2.74963 8.66502 2.74963 5.77502C2.74963 3.77502 4.24963 2.27502 6.24963 2.27502C7.78963 2.27502 9.28963 3.26502 9.81963 4.63502H11.6896C12.2096 3.26502 13.7096 2.27502 15.2496 2.27502C17.2496 2.27502 18.7496 3.77502 18.7496 5.77502C18.7496 8.66502 15.6096 11.515 10.8496 15.825Z" fill="black"/>
</svg>
