<svg width="21" height="19" viewBox="0 0 21 19" fill="none" xmlns="http://www.w3.org/2000/svg">
<path d="M14.9165 0.0559082C13.1765 0.0559082 11.5065 0.865908 10.4165 2.14591C9.3265 0.865908 7.6565 0.0559082 5.9165 0.0559082C2.8365 0.0559082 0.416504 2.47591 0.416504 5.55591C0.416504 9.33591 3.8165 12.4159 8.9665 17.0959L10.4165 18.4059L11.8665 17.0859C17.0165 12.4159 20.4165 9.33591 20.4165 5.55591C20.4165 2.47591 17.9965 0.0559082 14.9165 0.0559082ZM10.5165 15.6059L10.4165 15.7059L10.3165 15.6059C5.5565 11.2959 2.4165 8.44591 2.4165 5.55591C2.4165 3.55591 3.9165 2.05591 5.9165 2.05591C7.4565 2.05591 8.9565 3.04591 9.4865 4.41591H11.3565C11.8765 3.04591 13.3765 2.05591 14.9165 2.05591C16.9165 2.05591 18.4165 3.55591 18.4165 5.55591C18.4165 8.44591 15.2765 11.2959 10.5165 15.6059Z" fill="white" fill-opacity="0.8"/>
</svg>
